v -0.499327 -0.284925 0.000007
v -0.165994 -0.284925 0.000007
v -0.333333 -0.000000 0.000007
v -0.000000 -0.000000 0.000007
v 0.167340 -0.284925 0.000007
v 0.333333 -0.000000 0.000007
v 0.500673 -0.284925 0.000007
v -0.167339 0.284926 0.000007
v 0.165994 0.284926 0.000007
v -0.001346 0.569851 0.000007
vn 0.000000 0.000000 1.000000
vn 0.000000 0.000000 1.000000
vn 0.000000 0.000000 1.000000
vn 0.000000 0.000000 1.000000
vn 0.000000 0.000000 1.000000
vn 0.000000 0.000000 1.000000
vn 0.000000 0.000000 1.000000
vn 0.000000 0.000000 1.000000
vn 0.000000 0.000000 1.000000
vn 0.000000 0.000000 1.000000
vn 0.000000 0.000000 1.000000
vn 0.000000 0.000000 1.000000
vn 0.000000 0.000000 1.000000
vn 0.000000 0.000000 1.000000
vn 0.000000 0.000000 1.000000
vn 0.000000 0.000000 1.000000
vn 0.000000 0.000000 1.000000
vn 0.000000 0.000000 1.000000
vn 0.000000 0.000000 1.000000
vn 0.000000 0.000000 1.000000
vn 0.000000 0.000000 1.000000
vn 0.000000 0.000000 1.000000
vn 0.000000 0.000000 1.000000
vn 0.000000 0.000000 1.000000
vn 0.000000 0.000000 1.000000
vn 0.000000 0.000000 1.000000
vn 0.000000 0.000000 1.000000
g triangle
f 1//1 2//2 3//3
f 3//4 2//5 4//6
f 2//7 5//8 4//9
f 4//10 5//11 6//12
f 5//13 7//14 6//15
f 3//16 4//17 8//18
f 8//19 4//20 9//21
f 4//22 6//23 9//24
f 8//25 9//26 10//27
